<svg width="24" height="24" viewBox="0 0 24 24" fill="none" xmlns="http://www.w3.org/2000/svg">
<path d="M11.9929 11.0774C12.7274 11.0774 13.4317 11.3692 13.9511 11.8885C14.4704 12.4078 14.7622 13.1122 14.7622 13.8467L14.7604 15.2276C14.9505 18.6191 12.3381 20.3102 7.49556 20.3102C2.6696 20.3084 0 18.6413 0 15.2775V13.8467C0 13.1122 0.291764 12.4078 0.811108 11.8885C1.33045 11.3692 2.03483 11.0774 2.7693 11.0774H11.9929Z" fill="white"/>
<path d="M17.9321 19.2279L16.9831 18.9122L16.8317 18.8698C16.5523 18.8104 16.2613 18.8374 15.9975 18.9472C15.7337 19.057 15.5096 19.2444 15.3548 19.4846L14.4926 20.7511L14.4077 20.8895C14.2451 21.1932 14.1832 21.5407 14.231 21.8818C14.2788 22.223 14.4337 22.5401 14.6735 22.7874L15.2459 23.3616L15.3936 23.4964C15.9474 23.9653 16.6896 24.1204 17.3782 23.9062C19.1524 23.3524 20.7845 21.7092 22.2725 18.9769C23.7624 16.2389 24.2885 13.9183 23.851 12.0093C23.6664 11.2062 23.0941 10.5674 22.3482 10.3293L21.5968 10.0893L21.4546 10.0523C21.1238 9.98851 20.7811 10.0421 20.4855 10.2039C20.1899 10.3656 19.9601 10.6254 19.8355 10.9385L19.2355 12.3564L19.1783 12.5133C19.0898 12.7982 19.082 13.102 19.1557 13.391C19.2293 13.6801 19.3816 13.9431 19.5955 14.1509L20.9192 15.4082L20.8731 15.7294C20.7623 16.3719 20.5223 17.0033 20.1604 17.6291C19.7358 18.3565 19.2078 18.9621 18.5727 19.4421L17.9321 19.2279Z" fill="white"/>
<path d="M15.6926 15.5766C15.6926 16.1526 15.6225 16.6843 15.484 17.1735C16.0268 16.9852 16.6213 16.9391 17.2158 17.0646L17.2674 17.0757L17.5185 17.144L18.1167 17.3434C18.4453 16.9502 18.7055 16.5046 18.8866 16.0252L18.3235 15.4898C17.8606 15.0452 17.5304 14.4807 17.3697 13.8594C17.209 13.238 17.2241 12.5842 17.4133 11.971L17.4281 11.9248L17.5167 11.6793L17.7733 11.0774H14.4335C15.2016 11.7531 15.6853 12.7427 15.6853 13.8467L15.6816 15.176L15.6945 15.5766H15.6926Z" fill="white"/>
<path d="M7.38478 0C8.60889 0 9.78286 0.486274 10.6484 1.35185C11.514 2.21742 12.0003 3.39139 12.0003 4.6155C12.0003 5.8396 11.514 7.01357 10.6484 7.87914C9.78286 8.74472 8.60889 9.23099 7.38478 9.23099C6.16068 9.23099 4.98671 8.74472 4.12113 7.87914C3.25556 7.01357 2.76929 5.8396 2.76929 4.6155C2.76929 3.39139 3.25556 2.21742 4.12113 1.35185C4.98671 0.486274 6.16068 0 7.38478 0Z" fill="white"/>
<path d="M16.6157 1.84644C17.595 1.84644 18.5342 2.23545 19.2267 2.92791C19.9191 3.62037 20.3081 4.55955 20.3081 5.53883C20.3081 6.51812 19.9191 7.45729 19.2267 8.14975C18.5342 8.84221 17.595 9.23123 16.6157 9.23123C15.6365 9.23123 14.6973 8.84221 14.0048 8.14975C13.3124 7.45729 12.9233 6.51812 12.9233 5.53883C12.9233 4.55955 13.3124 3.62037 14.0048 2.92791C14.6973 2.23545 15.6365 1.84644 16.6157 1.84644Z" fill="white"/>
</svg>
