<svg width="24" height="24" viewBox="0 0 24 24" fill="none" xmlns="http://www.w3.org/2000/svg">
<path d="M16.0641 8.31592C16.0641 8.21279 15.9797 8.12842 15.8766 8.12842L14.3297 8.13545L12 10.9128L9.67266 8.13779L8.12344 8.13076C8.02032 8.13076 7.93594 8.21279 7.93594 8.31826C7.93594 8.36279 7.95235 8.40498 7.98047 8.44014L11.0297 12.073L7.98047 15.7034C7.95215 15.7378 7.93644 15.7808 7.93594 15.8253C7.93594 15.9284 8.02032 16.0128 8.12344 16.0128L9.67266 16.0058L12 13.2284L14.3273 16.0034L15.8742 16.0105C15.9773 16.0105 16.0617 15.9284 16.0617 15.823C16.0617 15.7784 16.0453 15.7362 16.0172 15.7011L12.9727 12.0706L16.0219 8.43779C16.05 8.40498 16.0641 8.36045 16.0641 8.31592Z" fill="#CE6060"/>
<path d="M12 1.52344C6.20156 1.52344 1.5 6.225 1.5 12.0234C1.5 17.8219 6.20156 22.5234 12 22.5234C17.7984 22.5234 22.5 17.8219 22.5 12.0234C22.5 6.225 17.7984 1.52344 12 1.52344ZM12 20.7422C7.18594 20.7422 3.28125 16.8375 3.28125 12.0234C3.28125 7.20938 7.18594 3.30469 12 3.30469C16.8141 3.30469 20.7188 7.20938 20.7188 12.0234C20.7188 16.8375 16.8141 20.7422 12 20.7422Z" fill="#CE6060"/>
</svg>