<svg width="42" height="28" viewBox="0 0 42 28" fill="none" xmlns="http://www.w3.org/2000/svg">
<path fill-rule="evenodd" clip-rule="evenodd" d="M0 13.501C0 13.1032 0.158025 12.7217 0.439312 12.4404C0.720598 12.1592 1.1021 12.0011 1.4999 12.0011H36.8766L27.4362 2.56373C27.1546 2.28209 26.9964 1.9001 26.9964 1.5018C26.9964 1.1035 27.1546 0.721508 27.4362 0.439866C27.7179 0.158224 28.0999 9.38431e-09 28.4982 0C28.8965 -9.38431e-09 29.2785 0.158224 29.5601 0.439866L41.5593 12.4391C41.699 12.5784 41.8098 12.7439 41.8855 12.9262C41.9611 13.1084 42 13.3037 42 13.501C42 13.6983 41.9611 13.8937 41.8855 14.0759C41.8098 14.2581 41.699 14.4236 41.5593 14.563L29.5601 26.5622C29.2785 26.8438 28.8965 27.0021 28.4982 27.0021C28.0999 27.0021 27.7179 26.8438 27.4362 26.5622C27.1546 26.2806 26.9964 25.8986 26.9964 25.5003C26.9964 25.102 27.1546 24.72 27.4362 24.4383L36.8766 15.0009H1.4999C1.1021 15.0009 0.720598 14.8429 0.439312 14.5616C0.158025 14.2803 0 13.8988 0 13.501Z" fill="white"/>
</svg>
