<svg width="105" height="105" viewBox="0 0 105 105" fill="none" xmlns="http://www.w3.org/2000/svg">
<g clip-path="url(#clip0)" filter="url(#filter0_dd)">
<path d="M96.5426 48.5032L100.798 37.4035C101.265 36.1789 100.901 34.7907 99.8767 33.9602L90.6502 26.4796L88.7831 14.7373C88.577 13.4401 87.5586 12.4277 86.2613 12.2216L74.519 10.3545L67.0445 1.1219C66.22 0.0974032 64.8015 -0.266322 63.6073 0.200459L52.5015 4.46211L41.4018 0.206521C40.1712 -0.266322 38.7951 0.109527 37.9646 1.12796L30.484 10.3605L18.7418 12.2276C17.4505 12.4337 16.4321 13.4522 16.226 14.7434L14.3589 26.4857L5.12631 33.9663C4.10788 34.7907 3.73809 36.1789 4.20487 37.4035L8.46046 48.5032L4.20487 59.6028C3.73203 60.8274 4.10788 62.2156 5.12631 63.04L14.3589 70.5146L16.226 82.2569C16.4321 83.5541 17.4445 84.5726 18.7418 84.7787L30.484 86.6458L37.9646 95.8723C38.7951 96.9029 40.1834 97.2666 41.4079 96.7937L52.5015 92.5442L63.6012 96.7998C63.9528 96.9332 64.3165 96.9998 64.6863 96.9998C65.5774 96.9998 66.4564 96.6058 67.0445 95.8723L74.519 86.6458L86.2613 84.7787C87.5586 84.5726 88.577 83.5541 88.7831 82.2569L90.6502 70.5146L99.8767 63.04C100.901 62.2095 101.265 60.8274 100.798 59.6028L96.5426 48.5032Z" fill="#FFB12B"/>
<path d="M43.4077 42.4414C38.3944 42.4414 34.3146 38.3616 34.3146 33.3483C34.3146 28.3349 38.3944 24.2551 43.4077 24.2551C48.4211 24.2551 52.5009 28.3349 52.5009 33.3483C52.5009 38.3616 48.4211 42.4414 43.4077 42.4414ZM43.4077 30.3172C41.7346 30.3172 40.3767 31.6751 40.3767 33.3483C40.3767 35.0214 41.7346 36.3793 43.4077 36.3793C45.0809 36.3793 46.4388 35.0214 46.4388 33.3483C46.4388 31.6751 45.0809 30.3172 43.4077 30.3172Z" fill="#FAFAFA"/>
<path d="M61.594 72.7516C56.5806 72.7516 52.5009 68.6718 52.5009 63.6584C52.5009 58.6451 56.5806 54.5653 61.594 54.5653C66.6073 54.5653 70.6871 58.6451 70.6871 63.6584C70.6871 68.6718 66.6073 72.7516 61.594 72.7516ZM61.594 60.6274C59.9269 60.6274 58.5629 61.9914 58.5629 63.6584C58.5629 65.3255 59.9269 66.6895 61.594 66.6895C63.2611 66.6895 64.625 65.3255 64.625 63.6584C64.625 61.9914 63.2611 60.6274 61.594 60.6274Z" fill="#FAFAFA"/>
<path d="M37.3466 72.7516C36.7343 72.7516 36.122 72.5698 35.5886 72.1879C34.2246 71.2119 33.9094 69.3205 34.8854 67.9565L65.1958 25.5219C66.1718 24.158 68.0632 23.8427 69.4271 24.8187C70.7911 25.7887 71.1003 27.6861 70.1303 29.044L39.8199 71.4786C39.2198 72.3091 38.2923 72.7516 37.3466 72.7516Z" fill="#FAFAFA"/>
</g>
<defs>
<filter id="filter0_dd" x="0" y="0" width="105" height="105" filterUnits="userSpaceOnUse" color-interpolation-filters="sRGB">
<feFlood flood-opacity="0" result="BackgroundImageFix"/>
<feColorMatrix in="SourceAlpha" type="matrix" values="0 0 0 0 0 0 0 0 0 0 0 0 0 0 0 0 0 0 127 0" result="hardAlpha"/>
<feOffset dy="4"/>
<feGaussianBlur stdDeviation="2"/>
<feComposite in2="hardAlpha" operator="out"/>
<feColorMatrix type="matrix" values="0 0 0 0 0 0 0 0 0 0 0 0 0 0 0 0 0 0 0.25 0"/>
<feBlend mode="normal" in2="BackgroundImageFix" result="effect1_dropShadow"/>
<feColorMatrix in="SourceAlpha" type="matrix" values="0 0 0 0 0 0 0 0 0 0 0 0 0 0 0 0 0 0 127 0" result="hardAlpha"/>
<feOffset dy="4"/>
<feGaussianBlur stdDeviation="2"/>
<feComposite in2="hardAlpha" operator="out"/>
<feColorMatrix type="matrix" values="0 0 0 0 0 0 0 0 0 0 0 0 0 0 0 0 0 0 0.25 0"/>
<feBlend mode="normal" in2="effect1_dropShadow" result="effect2_dropShadow"/>
<feBlend mode="normal" in="SourceGraphic" in2="effect2_dropShadow" result="shape"/>
</filter>
<clipPath id="clip0">
<rect width="97" height="97" fill="white" transform="translate(4)"/>
</clipPath>
</defs>
</svg>
