<svg width="97" height="97" viewBox="0 0 97 97" fill="none" xmlns="http://www.w3.org/2000/svg">
<path d="M93.5398 57.0728H85.9735L72.1858 81.1013H87.7941L87.7735 89.1146L93.4571 89.1292L93.4777 81.1011H97V75.4175H93.4927L93.5398 57.0728ZM87.8091 75.4177H82.0001L87.8352 65.2484L87.8091 75.4177Z" fill="#FFB12B"/>
<path d="M69.7076 74.8044C71.4682 72.2888 72.7506 69.6013 73.091 66.5776C73.091 61.3714 68.8554 57.1356 63.6491 57.1356C59.1475 57.1356 55.251 60.3381 54.3842 64.7505L53.8365 67.5391L59.4136 68.6345L59.9613 65.8459C60.3058 64.0922 61.8568 62.819 63.6491 62.819C65.6692 62.819 67.3222 64.421 67.4042 66.4215C67.0228 68.3207 66.1771 69.9366 65.0512 71.5452C58.8341 80.4281 56.1155 83.3376 56.0939 83.3605L55.3135 84.1793L55.2957 89.0086L74.1754 89.0664L74.1929 83.3828L63.4539 83.3501C64.9599 81.4104 67.0221 78.6416 69.7076 74.8044Z" fill="#FFB12B"/>
<path d="M79.7743 45.6581C78.4182 30.6055 66.3942 18.5838 51.3418 17.2273V23.0185H45.6582V17.2281C30.6063 18.5847 18.5848 30.6063 17.2281 45.6581H23.0186V51.3417H17.2274C18.5838 66.3942 30.6056 78.4182 45.6582 79.7743V73.9814H51.3418V56.5616C50.4521 56.876 49.4961 57.049 48.5 57.049C47.1788 57.049 45.9269 56.7474 44.8087 56.2101L39.0633 61.9555L35.0445 57.9366L40.7898 52.1912C40.2523 51.0733 39.9509 49.8212 39.9509 48.4999C39.9509 44.7821 42.3373 41.6126 45.6582 40.4383V31.3781H51.3418V40.4383C54.6627 41.6126 57.0491 44.7819 57.0491 48.4999C57.0491 49.4961 56.8761 50.4521 56.5616 51.3417H73.9814V45.6581H79.7743Z" fill="#FFB12B"/>
<path d="M48.5 51.3655C50.0826 51.3655 51.3655 50.0826 51.3655 48.5C51.3655 46.9174 50.0826 45.6345 48.5 45.6345C46.9174 45.6345 45.6345 46.9174 45.6345 48.5C45.6345 50.0826 46.9174 51.3655 48.5 51.3655Z" fill="#FFB12B"/>
<path d="M82.7946 14.2052C73.6342 5.04476 61.4548 0 48.5 0C35.5452 0 23.3658 5.04476 14.2054 14.2052C5.04476 23.3658 0 35.5452 0 48.5C0 61.4548 5.04476 73.6342 14.2054 82.7948C23.3658 91.9552 35.5452 97 48.5 97H51.3418V85.5854H48.5C28.051 85.5854 11.4146 68.949 11.4146 48.5C11.4146 28.051 28.051 11.4146 48.5 11.4146C68.949 11.4146 85.5854 28.051 85.5854 48.5V51.3418H97V48.5C97 35.5452 91.9552 23.3658 82.7946 14.2052Z" fill="#FFB12B"/>
</svg>
